<?xml version="1.0" encoding="UTF-8"?>
<svg width="700pt" height="700pt" version="1.1" viewBox="0 0 700 700" xmlns="http://www.w3.org/2000/svg" xmlns:xlink="http://www.w3.org/1999/xlink">
  <path style="fill:#cc0033" d="m350 531.35c138.48 0 251.35-112.87 251.35-251.35s-112.87-251.35-251.35-251.35-251.35 112.87-251.35 251.35 112.87 251.35 251.35 251.35zm0-467.54c118.95 0 216.19 96.805 216.19 216.19 0 119.38-96.805 216.19-216.19 216.19-119.38 0-216.19-97.242-216.19-216.19s97.242-216.19 216.19-216.19z"/>
  <path style="fill:#cc0033" d="m234.09 295.2h231.38c9.9844 0 17.797-7.8125 17.797-17.797 0-9.9844-7.8125-17.797-17.797-17.797l-231.38-0.003906c-9.9844 0-17.797 7.8125-17.797 17.797-0.003906 9.9844 8.2461 17.801 17.797 17.801z"/>
</svg>
