<?xml version="1.0" encoding="UTF-8"?>
<svg width="700pt" height="700pt" version="1.1" viewBox="0 0 700 700" xmlns="http://www.w3.org/2000/svg">
 <path style="fill:#cc0033" d="m222.1 21.23c53.691 0 100.85 27.766 128 69.82 26.949-42.055 74.109-69.82 127.8-69.82 84.113 0 152.1 67.984 152.1 152.1 0 32.258-7.1445 64.922-19.805 96.973h-181.29l-41.852-75.945c-4.8984-8.9844-16.129-12.25-25.316-7.3516-4.4922 2.6523-7.5547 6.7383-8.7773 11.23l-39.605 109.84-21.23-45.117c-3.2656-6.7383-9.8008-10.617-16.742-10.617h-192.11c-8.5742-26.336-13.27-52.875-13.27-79.008 0-84.113 67.984-152.1 152.1-152.1zm370.54 286.43c-49.812 93.301-143.73 178.64-242.54 231.31-105.14-55.938-204.77-149.04-251.93-249.27h165.37l35.32 74.926c2.043 4.2891 5.7148 7.7578 10.617 9.5938 9.5938 3.4688 20.211-1.6328 23.684-11.23l41.238-114.53 26.746 48.59c2.8594 6.3281 9.3906 10.617 16.945 10.617h174.55z" fill-rule="evenodd"/>
</svg>
