<?xml version="1.0" encoding="UTF-8"?>
<svg width="700pt" height="700pt" version="1.1" viewBox="0 0 700 700" xmlns="http://www.w3.org/2000/svg">
 <g>
  <path style="fill:#cc0033" d="m297.5 186.67c9.6641 0 17.5 7.832 17.5 17.5v151.66c0 9.6641-7.8359 17.5-17.5 17.5s-17.5-7.8359-17.5-17.5v-151.66c0-9.668 7.8359-17.5 17.5-17.5z"/>
  <path style="fill:#cc0033" d="m420 204.17c0-9.668-7.8359-17.5-17.5-17.5s-17.5 7.832-17.5 17.5v151.66c0 9.6641 7.8359 17.5 17.5 17.5s17.5-7.8359 17.5-17.5z"/>
  <path style="fill:#cc0033" d="m116.67 280c0-128.9 104.43-233.33 233.33-233.33s233.33 104.43 233.33 233.33-104.43 233.33-233.33 233.33-233.33-104.43-233.33-233.33zm233.33-198.33c-109.57 0-198.33 88.762-198.33 198.33s88.762 198.33 198.33 198.33 198.33-88.762 198.33-198.33-88.762-198.33-198.33-198.33z" fill-rule="evenodd"/>
 </g>
</svg>
