<?xml version="1.0" encoding="UTF-8"?>
<svg width="700pt" height="700pt" version="1.1" viewBox="0 0 700 700" xmlns="http://www.w3.org/2000/svg">
 <g fill-rule="evenodd">
  <path style="fill:#111" d="m350 64.168c-119.2 0-215.83 96.629-215.83 215.83 0 119.2 96.629 215.83 215.83 215.83 119.2 0 215.83-96.633 215.83-215.83 0-119.2-96.633-215.83-215.83-215.83zm-250.83 215.83c0-138.53 112.3-250.83 250.83-250.83s250.83 112.3 250.83 250.83-112.3 250.83-250.83 250.83-250.83-112.3-250.83-250.83z"/>
  <path style="fill:#111" d="m325.93 173c-5.2539-4.1992-12.449-5.0195-18.516-2.1055-6.0625 2.9141-9.918 9.0469-9.918 15.773v186.66c0 6.7266 3.8555 12.859 9.918 15.773 6.0664 2.9141 13.262 2.0977 18.516-2.1055l116.66-93.332c4.1523-3.3242 6.5703-8.3516 6.5703-13.668s-2.418-10.344-6.5703-13.664z"/>
 </g>
</svg>
